# xmcd
#
# Track frame offsets:
#	150
#	16842
#	33949
#	46673
#	59559
#	71773
#	85625
#	97937
#	118855
#	134954
#	145178
#	159292
#	188974
#
# Disc length: 2706 seconds
#
# Revision: 1
# Processed by: cddbd v1.5.2PL0 Copyright (c) Steve Scherf et al.
# Submitted via: audiograbber 1.83.01
#
DISCID=ae0a900d
DTITLE=Big Jugs - Ridin' Dirty
DYEAR=2008
DGENRE=Bluegrass
TTITLE0=Welcome Home
TTITLE1=This Is a Song About My Horse
TTITLE2=No Mi Gusta
TTITLE3=Moonshine
TTITLE4=You Put the Pro in Prostitute
TTITLE5=Three Shots
TTITLE6=Outlaw Yodel
TTITLE7=Ballad of the Hammerswinger
TTITLE8=Coming Down Again
TTITLE9=Line 'em Up
TTITLE10=My Girlfriend
TTITLE11=Antrome
TTITLE12=Tonight We Drink
EXTD=
EXTT0=
EXTT1=
EXTT2=
EXTT3=
EXTT4=
EXTT5=
EXTT6=
EXTT7=
EXTT8=
EXTT9=
EXTT10=
EXTT11=
EXTT12=
PLAYORDER=
